<svg xmlns="http://www.w3.org/2000/svg" viewBox="0 0 216 50" width="216" height="50"><path d="M46.1 35.4c1.8-2.6 3.1-4.7 4.2-7.8h3.4c-1.6 4-3.4 7.1-6 10.6v5.3h-3v-5.2c-2.6-3.6-4.4-6.7-6-10.6H42c1.1 3 2.3 5.1 4.1 7.7m30.8-1.3c-1.5-.5-2.3-.7-2.8-1.1-.6-.3-.7-.8-.7-1.2 0-.7.4-1.1.9-1.4.6-.3 1.3-.4 2-.4 1 0 2.2.2 3.4.7l1-2.3c-1.2-.6-2.9-1-4.4-1-1.6 0-3 .4-4 1.1-1.2.8-1.8 2-1.8 3.4 0 2.7 2.3 3.8 4.6 4.5.9.3 1.9.6 2.6.9.7.4 1 .9 1 1.6 0 .8-.5 1.3-.9 1.5-.6.3-1.5.5-2.4.5-2.1 0-3.6-.8-4.7-1.6l-1 2.4c1.4 1 3.6 1.8 5.9 1.8 3.5 0 6.1-1.8 6.1-4.8-.1-2.5-2.2-3.8-4.8-4.6m-16.4 6.6h-2.2V30.3h1.9c3.3 0 5.4 1.8 5.4 5.1.1 3.1-1.8 5.3-5.1 5.3m-.3-13.1h-4.8v15.9h5.1c4.7 0 8.2-3.3 8.2-8.1 0-4.7-3.3-7.8-8.5-7.8m36.1 13.5h-2.6v-4.6h2.6c2.3 0 3.4.6 3.4 2.2.2 2.1-1.9 2.4-3.4 2.4M93.8 30H96c2.1 0 3.1.5 3.1 1.9s-1 2.2-2.9 2.2h-2.5V30zm5.4 5.1c1.7-.6 2.7-1.7 2.7-3.6 0-2.8-2.5-3.9-4.9-3.9h-6.2v15.9h5.8c3 0 6-1.2 6-4.5.1-2.3-1.3-3.6-3.4-3.9m34.7-7.5h-2.8V39l-6.7-11.5h-3.6v15.9h2.7V31.6l6.9 11.9h3.5V27.6zm9.2 7.6l7.4-7.7h-3.7l-6.6 7.1h-.1v-7.1h-2.8v15.9h2.8v-7.7h.1l7 7.7h3.9l-8-8.2zM12.3 43.5h8.9l.9-2.8h-7V27.6h-2.9v15.9zM0 43.5h8.9l1-2.8h-7V27.6H0v15.9zm30.7-2.6c-3.2 0-5.1-2.4-5.1-5.4 0-3 1.8-5.4 5.1-5.4s5.1 2.5 5.1 5.4c0 3-1.9 5.4-5.1 5.4m.1-13.5c-4.9 0-8.1 3.6-8.1 8.1s3.1 8.1 8 8.1 8.1-3.6 8.1-8.1-3.2-8.1-8-8.1m80.4 12.7c1.2 0 2.3-.1 3.3-.4l1.5 3.8h3.3l-6.9-15.9H110l-6.9 15.9h3.3l1.5-3.8c1 .3 2.1.4 3.3.4m0-2.4c-.9 0-1.6 0-2.5-.2l2.5-6.3 2.5 6.3c-.9.1-1.6.2-2.5.2" fill="#006c32"/><path d="M213.5 26.3c1.1.8 2.2 1.4 2.2 2.6 0 .4-.5.8-1.5.8-.8 0-1.7-.2-2.1-.8-.3-.4.1-1-.1-1.5-.2-.4-.7-.2-1-.4-.4-.2-.4-.4-.7-.9-.3-.7-1.3-1.7-2.5-2.9-1-1-2-1.5-2.5-1.5h-.8c-.9 0-1.6.8-2.8 1.3-.9.4-1.3.6-1.8.7l-.2.2h1.1c1 0 2.4-.1 3.4-.1s1.6.9 2 1.9c.8 2 2 4.9 3.4 7.3.7 1.1 1.3 1.8 1.3 3.3 0 .4 0 1-.6 1-.8 0-2.8-.9-2.8-1.7 0-.7.6-1 .6-1.7 0-.4-.7-.4-.8-.8-.5-2.1-1.1-4.3-2.3-5.5-.6-.7-.7-.9-1.3-.9-.3 0-.7.1-.9.2-1.7.6-3.9 2.5-6.7 3.3-1 .3-1.2-.3-2.3-.1h.1c-.9.2-1.6.7-2.8 1-1.7.5-4.5.7-6.9.4-1.7-.2-3.8-.6-4.7-.5-.7 2-2.2 4.6-4.4 5.7-1.2.5-1.5 1.2-1.2 2.6.4 1.7 1.9 2.8 2.6 4.3.7 1.2 1.8 3.1 3 3.7s1.9 1.5 1.9 2.3c0 .4-.1.6-.5.6h-2.4c-.4 0-.6-.2-.6-.4-.3-.6-.1-1.2-.6-1.7-.3-.4-.6-.3-1-.6-.7-.7-.2-1.1-.7-2-1.5-2.4-2.2-3-3.4-4.7-.7-.9-1.6-1.4-1.6-2.6 0-1.5 1.5-1.7 1.4-3.2-.9.7-2 1.2-3.7 1.5-.2 0-.8.5-1 .8-.6.6-.8 1.2-.9 2-.2 2-.6 4-.3 6 .3 1.3.6 1.7 1.6 2.4.7.4 1.4 1 1.5 2 0 .2-.1.6-.4.6h-2.6c-.2 0-.5-.2-.6-.3-.3-.5-.1-.9-.2-1.5-.2-1.2-1.6-1.1-1.6-2.4 0-.4.2-.9.2-1.6.1-1.7.6-4.4.1-7.7-.2-1.9 1.7-2 2.8-3.6l.8-1.2c.4-.7.3-1.2.2-1.7 0-.6-.6-1.7-.2-4.1.1-1 .7-2.1 1.4-3 0 0 0-.2-.2-.2-1 .1-1-.2-1.7-.2s-1.2.6-1.3.9c-.3-.1-.5-.5-.5-.7 0-.4.1-.7.4-1 .1-.1 0-.2-.2-.2-.8 0-1.6 1-1.7 1.7-.5-.1-.5-.7-.7-.7-.2 0-.4.3-.4.7 0 2.3 3.8 2.8 3.8 5.9 0 3.5-4.3 2.8-4.3 4.1 0 .2.2.5.5.6-.1.3-.5.5-.9.5-.9 0-1.7-.7-1.7-1.7 0-1.9 2.6-2 2.6-3.4 0-.7-.4-.9-.9-1.2-2.5-1.7-3.9-3.5-3.9-6.4 0-3.1 2.2-5.5 5-5.5 4.1 0 4.2 4.7 7.9 5.1 1.4-.9 3-1.5 4.6-1.5 2.4 0 3.4.6 6 .6 1 0 2.7-.3 4.8-1.7.8-.5 1.1-.6 1.8-1.2 1.6-1.4 3.1-4.1 3.1-6v.1c0-.6-.1-1-.4-1-.9 0-1.7.8-2.5 1.7-.6.6.3.9-.9 1.5-.4.2-.9-.2-1.4-.2-1 0-1.4-1.2-1.4-2.2 0-.5.4-.7.6-1.1.5-1 .5-1.4.9-2.3.3-.7.8-1.1.8-1.6 0-.2-.1-.3-.1-.5 0-1 1.3-1.7 1.3-2.6 0-.6-.6-.8-.8-1.2-.1-.4 0-.6 0-.6 0-.1.1-.1.2-.1.5 0 .7.6 1.2.9 0-.7-.2-.8-.2-1.3 0-.2 0-.7.2-.7.3 0 .3.4.6.7.4.3.7.2 1.1.5.5.3.8.9 1 .9.5.1.7-.6.4-.9.6 0 1.2.4 1.9.4 1.2 0 1.6.3 1.8.5.8.7.9 1.2 1.7 1.2.4 0 .7-.4.8-.5.6.4.6 1.5 0 2.5.2.8 1.3.9 1.8 1.2.5.4.4.6.8.8.3.2.6.1.8 0 .2 1-.6 1.9-1.7 2.1 0 1.3 1.4 2.1 2 2.5-.4.8-1 1-1.6 1.2.2.8 1 2 .6 3-.4-.2-1 0-1 .6 0 .7.9 1 0 1.5-.4.2-.5.8.2 1.4.9-.2 1.8-.2 2.9-.2.7 0 1.5-.2 2.1-.2 1.1 0 1.7.4 2.6 1.3 2.1 1.4 3.9 3.7 6 5.3" fill="#231f20"/><path d="M159.4 20.5c.4 0 1.2-2.4 2.9-2.4.5 0 .6.2.6.4 0 .3-.6.6-.6 1 0 .1 0 .2.2.2.4 0 .7-.9 2.3-.9.4 0 .8 0 1.2.1.2 0 .6.2.4-.3-.4-1.1-1.7-2.2-3.4-2.2s-3.6 1.6-3.8 3.4c0 .4 0 .7.2.7m30.3-15.1c-.5-.2-.6-.4-.4-1 .1-.6.1-.9-.1-.9-.2-.1-.6.1-.9.4-.3.4-.8.9-.9 1.3-.1.5.5.4 0 1.3-.8 1.4-.9 1.7-1.3 2.6-.3 1-.6 1.2-.8 1.5-.2.3.3.3.9.1.6-.2.7.5.4 1-.2.4 0 .5.5.1s-.2-.7-.1-1.8c.2-1 .4-1.7 1-2.7.6-.9 1-1.6 2-1.2.4.2.2-.4-.3-.7m20.2 31c.2 0 .2-.2.2-.5 0-.5-.3-1.3-.7-1.6-.1.8-.5 1.3-.5 1.6.1.3.8.5 1 .5m4.6-7.3c.3 0 .7-.1.7-.3 0-.4-.7-1.2-1.2-1.4.3.7-.1 1.7.5 1.7m-20.1-10c4.1 1.9 3.9 5.3 4.2 4.5.1-.4.7-2.1-.8-3.7-1.1-1.3-1.6-1-1.1-2.1 1.8-4.3 2.9-10.9-2.5-13.2-.6-.2-1.1-.2-1.1-.1s.6.3 1.3.8c3.6 2.4 2.5 8.8-.8 12-1 .9-.5 1.2.8 1.8m-14.1 30.2c.3 0 .1-.4 0-.6-.2-.4-.7-.7-1.1-.9.1.4.1 1.5.6 1.5h.5m-12.4 0c.3 0 .1-.4 0-.6-.2-.4-.8-.7-1.2-.9.1.4.2 1.5.6 1.5h.6M183 24.6c2.3-.2 2.6-.8 3-2.5.2-.8.8-1.7 1.3-2.2.3-.4.7-.7 1-1.2.1-.2.2-.4 0-.3-.2.2-1 .7-1.4.9-1.6 1.1-4.1 1.7-5 1.7-2.1 0-3.9-.6-5.8-.6-5.7 0-7.8 4.4-7.5 7 0 .4.1.4.2.4.4 0 .8-1.5 2.2-2.9 2.1-2 4.3-3.1 7.6-3.1 2.3 0 3.3.8 3.3 1 0 .6-1 .6-.9 1.2 0 .4.5.8 2 .6" fill="#6d6e70"/></svg>