<svg xmlns="http://www.w3.org/2000/svg" viewBox="0 0 151.09 36"><defs><style>.cls-1{fill:#28cf81;}.cls-2{fill:#3e80f2;}</style></defs><title>monese</title><g id="Layer_2" data-name="Layer 2"><g id="Layer_1-2" data-name="Layer 1"><path class="cls-1" d="M44.36,6.07a6.18,6.18,0,0,0-1-3.47,5.68,5.68,0,0,0-9-.64c-3.87,4.18-7.67,8.41-11.45,12.66-.6.67-.88.75-1.53,0C17.68,10.44,13.89,6.3,10.11,2.16A5.67,5.67,0,0,0,0,6.06q0,6,0,12c0,4,0,8,0,12A5.61,5.61,0,0,0,3.64,35.6,5.61,5.61,0,0,0,10,33.92c1.36-1.45,2.71-2.91,4-4.42.5-.58.73-.52,1.12.09.86,1.33,1.78,2.62,2.69,3.92,2.29,3.26,6.22,3.29,8.53.06,1-1.35,1.92-2.72,2.82-4.12.36-.55.57-.49,1-.05,1.31,1.49,2.65,3,4,4.44a5.67,5.67,0,0,0,6.49,1.76A5.74,5.74,0,0,0,44.35,30C44.37,22,44.36,14,44.36,6.07ZM12.17,26.44c-1.64,1.8-3.26,3.61-4.92,5.4a2,2,0,0,1-2.33.53,2.06,2.06,0,0,1-1.47-2c0-5.79,0-11.58,0-17.37l.23-.08Q8,19.14,12.29,25.39A.72.72,0,0,1,12.17,26.44Zm2.42-3.77Q9.31,14.93,4,7.23a2.3,2.3,0,0,1-.28-2.52A2.2,2.2,0,0,1,5.64,3.48a2.14,2.14,0,0,1,1.72.78q6,6.63,12,13.25c.35.39.33.62,0,1-1.3,1.4-2.58,2.81-3.84,4.25C15.13,23.21,14.94,23.18,14.59,22.67Zm12.27,4.15c-1.15,1.62-2.24,3.29-3.4,4.9a1.46,1.46,0,0,1-2.61,0c-1.19-1.64-2.31-3.34-3.47-5a.64.64,0,0,1,.05-.95c1.46-1.58,2.89-3.18,4.34-4.78.1-.11.23-.21.37-.34a6.89,6.89,0,0,1,.55.51c1.36,1.5,2.71,3,4.09,4.51A.76.76,0,0,1,26.86,26.82Zm14,3.5a2,2,0,0,1-1.44,2,2,2,0,0,1-2.34-.51c-1.68-1.81-3.33-3.66-5-5.48-.24-.27-.37-.48-.12-.84q4.33-6.29,8.66-12.59l.24.1ZM40.51,6.91c-3.67,5.4-7.39,10.76-11.1,16.13,0,.05-.14.07-.24.12-1.41-1.55-2.82-3.12-4.25-4.66-.36-.39-.34-.62,0-1,4-4.41,8-8.84,12-13.24A2.16,2.16,0,0,1,40,4,2.17,2.17,0,0,1,40.51,6.91Z"/><path class="cls-2" d="M77.52,15.85a4.68,4.68,0,0,0-4.6-4.48A5.13,5.13,0,0,0,68.43,13c-.28.33-.44.3-.77,0-2.77-2.31-4.86-2.36-7.68-.14.27-1.3-.49-1.35-1.39-1.27a3.94,3.94,0,0,1-1,0c-.89-.13-1.08.28-1.07,1.1.05,3.13,0,6.26,0,9.38,0,2.5,0,2.47,2.5,2.45.75,0,1-.21,1-1,0-1.87,0-3.74,0-5.61,0-2.19,1-3.42,2.78-3.42s2.52,1.14,2.53,3.32c0,1.42,0,2.85,0,4.27,0,2.43,0,2.38,2.43,2.41.91,0,1.07-.33,1-1.13q-.07-3,0-6a2.71,2.71,0,0,1,2.8-2.9c1.5,0,2.43,1.06,2.49,2.87,0,1.55,0,3.09,0,4.63,0,2.58,0,2.56,2.6,2.48.58,0,.87-.11.86-.79C77.52,21.14,77.61,18.49,77.52,15.85Z"/><path class="cls-2" d="M86.94,11.36a6.63,6.63,0,0,0-7,6.76,6.7,6.7,0,0,0,7,6.88,6.79,6.79,0,0,0,7-6.74A6.72,6.72,0,0,0,86.94,11.36Zm0,10.33a3.34,3.34,0,0,1-3.49-3.56,3.44,3.44,0,0,1,3.4-3.56,3.39,3.39,0,0,1,3.46,3.6A3.28,3.28,0,0,1,86.91,21.69Z"/><path class="cls-2" d="M119.32,11.64a6.32,6.32,0,0,0-6.55,1.5,7,7,0,0,0-1.66,7.23c1.55,5.48,8.24,5.52,11.43,3.06.39-.3.42-.54.09-.88A8.33,8.33,0,0,0,121.1,21c-.51-.28-.94.49-1.49.61A8.78,8.78,0,0,1,118,22a3.2,3.2,0,0,1-3.19-1.6c-.36-.66-.47-1.11.58-1.06,1.22.06,2.44,0,3.66,0h3.78c.42,0,.75,0,.86-.6A6.6,6.6,0,0,0,119.32,11.64Zm.64,5c-.2.7-1,.27-1.49.3-1,.07-2.12,0-3.17,0s-.91-.38-.61-1a2.81,2.81,0,0,1,2.67-1.66,2.75,2.75,0,0,1,1.75.65C119.6,15.43,120.14,16,120,16.64Z"/><path class="cls-2" d="M148.13,12.28a6.41,6.41,0,0,0-7.13.18c-3.08,2-3.73,7.16-1.39,10.11,2.64,3.32,7.78,2.85,10.37.84.2-.16.55-.32.24-.66A11.16,11.16,0,0,0,148.53,21c-.47-.32-.9.36-1.36.56-2,.87-4.13.4-5-1.14-.38-.69-.42-1.13.6-1.09,1.22.05,2.44,0,3.65,0s2.52,0,3.78,0c.46,0,.72-.1.8-.65A6.71,6.71,0,0,0,148.13,12.28ZM142.58,17c-.69,0-.72-.29-.53-.83a2.82,2.82,0,0,1,3-1.79A2.58,2.58,0,0,1,147.42,17C145.8,17,144.19,17,142.58,17Z"/><path class="cls-2" d="M108.49,16a4.41,4.41,0,0,0-2.82-4.2c-2.08-.87-4-.61-6.08,1.26.37-1.39-.29-1.48-1.09-1.42a5,5,0,0,1-1.09,0c-1-.14-1.16.28-1.14,1.16,0,3.09,0,6.18,0,9.26,0,2.7,0,2.68,2.66,2.56.66,0,.82-.26.81-.87,0-2,0-4,0-6s1-3.17,2.72-3.19,2.51,1,2.57,3c0,1.5,0,3,0,4.5,0,2.61,0,2.59,2.61,2.49.59,0,.87-.15.86-.82C108.5,21.21,108.58,18.61,108.49,16Z"/><path class="cls-2" d="M133.6,17c-1.13-.3-2.3-.45-3.46-.68-.54-.11-1-.34-1-1s.57-.88,1.11-1a7.33,7.33,0,0,1,3.25.3c1.83.54,1.79.52,2.56-1.22.33-.73.1-1-.55-1.24a10.61,10.61,0,0,0-4.28-.76,11.84,11.84,0,0,0-1.46,0c-2.33.27-3.94,1.6-4.19,3.42-.33,2.42,1,4,3.65,4.56,1,.18,1.92.31,2.87.51.52.11,1.06.31,1,1s-.5.88-1,1a6.1,6.1,0,0,1-4.39-.46c-1.16-.61-1.71-.38-2.08.77a1.8,1.8,0,0,1-.28.53c-.36.54-.21.86.36,1.12a10.69,10.69,0,0,0,8.28.53,4,4,0,0,0,2.75-4C136.65,18.68,135.59,17.5,133.6,17Z"/></g></g></svg>