<svg width="42" height="26" fill="none" xmlns="http://www.w3.org/2000/svg"><path d="M.58 24.98h40.85v.84H.58v-.84z" fill="url(#paint0_linear)"/><path d="M13.16 23.55v.01h.01-.01zm0-2.81h.01-.01z" fill="#FF5F00"/><path d="M.93 24.17a1.4 1.4 0 001.4 1.4h37.23a1.4 1.4 0 001.44-1.4V1.74a1.4 1.4 0 00-1.41-1.4H2.33a1.4 1.4 0 00-1.4 1.4v2.54a5.56 5.56 0 010 6.17v13.72z" fill="#44EE70"/><path d="M35.08 10.46H30a.72.72 0 00-.66.77v4A.71.71 0 0030 16h5.12a.72.72 0 00.67-.77v-4a.73.73 0 00-.71-.77z" fill="#A8AAAC"/><path opacity=".2" d="M29.3 12.37h2.34v.13H29.3v-.13zM29.3 14.17h2.34v.13H29.3v-.13zM33.41 12.37h2.34v.13h-2.34v-.13zM33.41 14.17h2.34v.13h-2.34v-.13z" fill="#A8AAAC"/><path opacity=".2" d="M33.43 14.41c.01-.2 0-.4-.06-.59a2.7 2.7 0 01-.07-.47c.01-.15.03-.3.07-.46.05-.2.07-.39.06-.59-.15-.82-.5-1.37-.91-1.37-.41 0-.76.56-.9 1.4-.01.18 0 .38.06.56.04.15.07.3.08.45a2.3 2.3 0 01-.08.47c-.05.19-.07.39-.06.58.14.82.49 1.38.9 1.38.41 0 .76-.54.91-1.36zm-.11 0c-.14.76-.45 1.26-.8 1.26-.35 0-.66-.5-.79-1.27-.01-.18 0-.36.06-.53.04-.16.07-.33.08-.5-.01-.16-.04-.32-.08-.48a1.45 1.45 0 01-.06-.52c.13-.77.45-1.28.79-1.28s.66.5.8 1.27c.01.18 0 .36-.06.53a2.4 2.4 0 00-.08.5c0 .16.03.33.07.5.05.16.07.33.07.5v.02z" fill="#A8AAAC"/><defs><linearGradient id="paint0_linear" x1=".58" y1="25.4" x2="41.42" y2="25.4" gradientUnits="userSpaceOnUse"><stop stop-opacity="0"/><stop offset=".07" stop-opacity=".16"/><stop offset=".5" stop-opacity=".3"/><stop offset=".93" stop-opacity=".16"/><stop offset="1" stop-opacity="0"/></linearGradient></defs></svg>