<svg width="190" height="50" fill="none" xmlns="http://www.w3.org/2000/svg"><path d="M139.193 12.067h-5.923a.43.43 0 00-.441.44v18.306a.43.43 0 00.441.44h5.892a.43.43 0 00.441-.44V12.508c0-.22-.189-.441-.41-.441zm26.339-5.608h-5.891a.43.43 0 00-.441.44v23.914a.43.43 0 00.441.44h5.891a.43.43 0 00.442-.44V6.9a.451.451 0 00-.442-.441zm-29.3-3.718c-2.08 0-3.749 1.67-3.749 3.718s1.669 3.717 3.749 3.717c2.079 0 3.749-1.67 3.749-3.717-.031-2.048-1.701-3.718-3.749-3.718zm52.804 11.752v-1.954a.43.43 0 00-.441-.44h-5.892a.43.43 0 00-.441.44v9.988c0 2.08-1.134 3.182-2.741 3.182-1.607 0-2.646-1.103-2.646-3.182v-9.988a.43.43 0 00-.441-.44h-5.892a.43.43 0 00-.441.44v9.988c0 3.938.567 5.797 1.229 6.679 1.165 1.544 2.898 2.489 5.167 2.489 2.047 0 3.465-.945 4.725-1.922.41-.315 1.009-.504 1.009.347v1.701c-.032 1.134-.788 2.11-1.733 2.615-.032 0-.032.032-.063.032-.441.22-.977.378-1.512.346 0 0-1.324 0-2.017-.126-.252-.031-.504.126-.504.378l-.441 5.073a.423.423 0 00.378.472c2.205.347 4.537.284 7.026-.567 3.907-1.323 5.671-4.19 5.671-8.349V14.493zm-34.058-2.426h-2.647a.43.43 0 01-.441-.441V6.868a.43.43 0 00-.441-.44h-5.891a.43.43 0 00-.441.44v4.758a.43.43 0 01-.442.44h-1.827a.43.43 0 00-.441.442v5.04a.43.43 0 00.441.442h1.827a.43.43 0 01.442.441v8.286c0 2.741 1.89 4.947 4.978 4.947 2.268 0 4.19-.347 5.009-.725.189-.095.315-.22.315-.41v-4.064a.465.465 0 00-.504-.441c-.977.157-3.025.599-3.025-1.985v-5.608a.43.43 0 01.441-.441h2.647a.43.43 0 00.441-.441v-5.041a.45.45 0 00-.441-.441zm-92.06 6.238c2.33 0 3.686-1.134 3.686-2.93v-.063c0-1.954-1.418-2.93-3.718-2.93h-4.064a.43.43 0 00-.441.44v5.073a.43.43 0 00.44.442h4.096v-.032zM51.48 6.868a.43.43 0 01.44-.44h11.312c3.812 0 6.427.976 8.097 2.677 1.449 1.418 2.205 3.308 2.205 5.766v.063c0 3.592-1.827 6.018-4.663 7.372a.443.443 0 00-.189.63l5.167 7.53c.126.19.095.473-.126.599-.063.063-.157.063-.252.063h-6.805a.555.555 0 01-.473-.252l-4.6-6.9a.64.64 0 00-.63-.315H58.79a.43.43 0 00-.44.441v6.616a.43.43 0 01-.442.441H51.89a.43.43 0 01-.44-.44l.03-23.85zm37.177 12.729c0 .252-.19.44-.41.44h-6.017c-.22 0-.41-.188-.41-.44 0-1.86 1.48-3.34 3.403-3.34 2.048-.031 3.434 1.45 3.434 3.34zm-3.75-7.908c-5.986 0-9.735 4.663-9.735 10.208 0 5.513 4.096 9.767 9.736 9.767 5.04 0 8.034-2.174 9.42-5.451.126-.284-.095-.599-.41-.599h-5.167c-.22 0-.41.095-.535.252-.662.694-1.513 1.135-2.678 1.135-2.206 0-3.939-1.135-3.939-3.025a.43.43 0 01.442-.441h12.35a.43.43 0 00.441-.441v-1.229c-.031-5.482-3.466-10.176-9.924-10.176zm37.146-.032c-2.646 0-4.537 1.071-6.143 2.773-.126.126-.347.157-.473.031l-.063-.063c-1.071-1.733-2.93-2.71-5.325-2.71h-.252c-1.985.064-3.717 1.009-4.883 2.427-.189.252-.599.094-.599-.22v-1.356c0-.22-.189-.41-.409-.41h-5.923a.43.43 0 00-.441.442v18.273c0 .252.189.441.44.441h5.892a.43.43 0 00.441-.44v-9.988c0-2.08 1.135-3.182 2.741-3.182 1.607 0 2.647 1.103 2.647 3.182v9.956a.43.43 0 00.441.44h5.892a.43.43 0 00.441-.44v-9.987c0-2.08 1.165-3.183 2.772-3.183 1.607 0 2.647 1.103 2.647 3.183v9.987a.43.43 0 00.441.44h5.891a.43.43 0 00.441-.44v-12.13c-.031-4.474-2.52-7.026-6.616-7.026zM35.161 24.89L20.447 14.178a2.129 2.129 0 00-2.489 0l-6.553 4.757c-.378.284-.85.378-1.323.315a1.738 1.738 0 01-1.166-.693c-.283-.378-.378-.85-.315-1.323s.315-.882.693-1.166l4.663-3.371 4.064-2.93c2.269-1.638 5.388-1.45 7.404.473.441.44 1.134.44 1.639.094l8.097-5.892V24.89zm-.19 4.19l-.03.126c-.064.315-.253.756-.474.977a1.67 1.67 0 01-2.11.157l-7.152-5.23-.063-.031c-.441-.315-1.134-.315-1.544.063-.504.44-.536 1.197-.095 1.701.064.063.127.126.19.158l.094.063 6.585 4.789c.378.252.63.661.693 1.102.094.63-.158 1.198-.662 1.576l-.157.094c-.567.41-1.355.41-1.922 0l-8.16-5.923c-.441-.315-1.134-.315-1.544.063-.504.441-.536 1.197-.095 1.701.064.063.127.126.19.158l6.679 4.852c.378.252.63.661.693 1.102.095.63-.158 1.198-.662 1.576l-.157.094c-.567.41-1.355.41-1.922 0l-1.48-1.07-6.68-4.853c-.441-.315-1.134-.315-1.544.063-.504.441-.535 1.197-.094 1.702a.835.835 0 00.189.157l6.679 4.852c.378.252.63.662.693 1.103.094.63-.158 1.197-.662 1.575l-.157.094c-.504.378-1.166.41-1.733.127L2.583 30.372V4.474l6.932 5.04 2.174 1.576-3.97 2.899a4.404 4.404 0 00-1.764 2.867 4.366 4.366 0 00.787 3.276 4.404 4.404 0 002.867 1.765c.22.031.473.063.694.063.913 0 1.795-.284 2.583-.851l5.545-4.033a1.23 1.23 0 011.45 0l14.555 10.586c.441.347.63.882.536 1.418zm-1.67-26.497l-6.584 4.79c-.189.157-.473.157-.693.03-2.71-1.763-6.207-1.826-8.948-.125-.094.031-.157.094-.252.126l-2.835 2.08-9.484-6.9h28.797zM37.399.378A1.262 1.262 0 0036.484 0H1.292C.567 0 0 .599 0 1.292v29.71c0 .41.189.819.536 1.071L17.454 44.36c.851.63 2.017.63 2.867 0l16.92-12.287c.346-.252.535-.63.535-1.071V1.26c0-.315-.126-.661-.378-.882zm19.88 43.1c0-.882-.662-1.48-1.575-1.48h-2.237v2.93h2.237c.913 0 1.575-.568 1.575-1.45zm-5.42 6.333V40.58h4.065c1.953 0 2.993 1.323 2.993 2.898 0 1.576-1.071 2.867-2.993 2.867h-2.457v3.466h-1.607zm8.098 0v-6.68h1.45v.977c.503-.63 1.322-1.134 2.173-1.134v1.45c-.157-.032-.284-.032-.441-.032-.63 0-1.45.41-1.733.914v4.568l-1.45-.063zm9.483-3.34c0-1.165-.693-2.205-1.922-2.205-1.228 0-1.921 1.04-1.921 2.205 0 1.198.693 2.237 1.921 2.237 1.26 0 1.922-1.04 1.922-2.237zm-5.356 0c0-1.921 1.292-3.497 3.434-3.497 2.143 0 3.434 1.576 3.434 3.497 0 1.922-1.291 3.529-3.434 3.529-2.11-.032-3.434-1.638-3.434-3.529zm16.289 3.34v-4.348c0-.724-.315-1.197-1.103-1.197-.662 0-1.26.441-1.544.882v4.694h-1.449v-4.347c0-.725-.315-1.198-1.103-1.198-.661 0-1.26.442-1.544.883v4.694H72.18v-6.68h1.45v.914c.283-.41 1.165-1.07 2.173-1.07 1.009 0 1.607.503 1.828 1.228.378-.599 1.26-1.229 2.268-1.229 1.229 0 1.922.662 1.922 2.017v4.82l-1.45-.063zm3.056 0h1.45v-6.68h-1.45v6.68zm-.158-8.412c0-.504.41-.914.883-.914.504 0 .913.41.913.882 0 .505-.41.914-.882.914a.869.869 0 01-.914-.882zm2.93 7.53l.662-1.04c.473.473 1.386.914 2.268.914.883 0 1.324-.347 1.324-.882 0-1.324-4.033-.379-4.033-2.962 0-1.103.945-2.016 2.615-2.016 1.134 0 1.985.41 2.583.913l-.598 1.04c-.41-.441-1.134-.788-1.985-.788-.756 0-1.229.347-1.229.82 0 1.165 4.033.283 4.033 2.961 0 1.197-.977 2.08-2.773 2.08-1.134 0-2.173-.347-2.867-1.04zM96 44.139c-1.229 0-1.828.946-1.86 1.765h3.782c-.063-.787-.599-1.764-1.922-1.764zm-3.371 2.332c0-1.921 1.417-3.497 3.402-3.497 2.017 0 3.277 1.513 3.277 3.623v.347H94.17c.126 1.008.851 1.827 2.111 1.827.662 0 1.418-.252 1.922-.756l.662.945c-.693.63-1.67.977-2.71.977-2.048.032-3.528-1.355-3.528-3.466zm7.278 2.458l.661-1.04c.473.473 1.386.914 2.269.914.882 0 1.323-.347 1.323-.882 0-1.324-4.033-.379-4.033-2.962 0-1.103.945-2.016 2.615-2.016 1.134 0 1.985.41 2.584.913l-.599 1.04c-.41-.441-1.134-.788-1.985-.788-.756 0-1.229.347-1.229.82 0 1.165 4.033.283 4.033 2.961 0 1.197-.977 2.08-2.772 2.08-1.166 0-2.174-.347-2.867-1.04zm17.296-3.75c0-1.764-1.102-3.181-3.15-3.181h-1.828v6.395h1.828c1.985 0 3.15-1.45 3.15-3.213zm-6.584 4.632V40.58h3.434c2.898 0 4.82 1.922 4.82 4.6 0 2.74-1.953 4.631-4.82 4.631h-3.434zm12.476-5.671c-1.229 0-1.827.945-1.859 1.764h3.781c-.063-.787-.599-1.764-1.922-1.764zm-3.371 2.331c0-1.921 1.418-3.497 3.402-3.497 2.017 0 3.277 1.513 3.277 3.623v.347h-5.135c.126 1.008.85 1.827 2.11 1.827.662 0 1.418-.252 1.922-.756l.662.945c-.693.63-1.67.977-2.71.977-2.047.032-3.528-1.355-3.528-3.466zm7.845 3.34h1.449V40.58h-1.449v9.231zm3.056 0h1.449v-6.68h-1.449v6.68zm-.189-8.412c0-.504.409-.914.882-.914.504 0 .914.41.914.882 0 .505-.41.914-.883.914a.868.868 0 01-.913-.882zm5.261 8.412l-2.741-6.68h1.576l1.953 5.01 1.953-5.01h1.544l-2.741 6.68h-1.544zm7.625-5.671c-1.229 0-1.828.945-1.859 1.764h3.781c-.063-.787-.599-1.764-1.922-1.764zm-3.371 2.331c0-1.921 1.417-3.497 3.402-3.497 2.017 0 3.277 1.513 3.277 3.623v.347h-5.136c.126 1.008.851 1.827 2.111 1.827.662 0 1.418-.252 1.922-.756l.662.945c-.693.63-1.67.977-2.71.977-2.048.032-3.528-1.355-3.528-3.466zm7.845 3.34v-6.68h1.449v.977c.504-.63 1.323-1.134 2.174-1.134v1.45c-.158-.032-.284-.032-.441-.032-.63 0-1.45.41-1.733.914v4.568l-1.449-.063zm7.214-5.671c-1.228 0-1.827.945-1.858 1.764h3.78c-.063-.787-.598-1.764-1.922-1.764zm-3.371 2.331c0-1.921 1.418-3.497 3.403-3.497 2.016 0 3.277 1.513 3.277 3.623v.347h-5.136c.126 1.008.851 1.827 2.111 1.827.662 0 1.418-.252 1.922-.756l.661.945c-.693.63-1.669.977-2.709.977-2.048.032-3.529-1.355-3.529-3.466zm12.54 1.324v-2.647c-.315-.504-1.04-.914-1.702-.914-1.165 0-1.89.914-1.89 2.206 0 1.292.725 2.237 1.89 2.237.662.031 1.387-.378 1.702-.882zm0 2.016v-.914a2.657 2.657 0 01-2.143 1.072c-1.701 0-2.961-1.292-2.961-3.53 0-2.173 1.26-3.496 2.961-3.496.851 0 1.607.378 2.143 1.102V40.58h1.449v9.231h-1.449z" fill="#212E61"/></svg>