<svg xmlns="http://www.w3.org/2000/svg" viewBox="0 0 1000 167">
  <path d="M208.5 18.6c-37.5 0-66.9 28.6-66.9 64.9v.3c0 36.9 28.7 64.6 66.6 64.6 37.5 0 67.1-28.6 67.1-64.9v-.3c0-36.9-28.7-64.6-66.8-64.6m-37.3 64.6c0-21.9 15.9-38.5 37.2-38.5 21.4 0 37.5 16.6 37.5 38.8v.3c0 21.9-15.9 38.5-37.2 38.5-21.4 0-37.5-16.6-37.5-38.8v-.3zm181.4-64.6c-37.5 0-67.1 28.6-67.1 64.9v.3c0 36.9 28.7 64.6 66.6 64.6 37.5 0 67.1-28.6 67.1-64.9v-.3c.2-36.9-28.5-64.6-66.6-64.6m-37.3 64.6c0-21.9 15.9-38.5 37.2-38.5 21.4 0 37.5 16.6 37.5 38.8v.3c0 21.9-15.9 38.5-37.2 38.5-21.4 0-37.5-16.6-37.5-38.8v-.3zm259.2-63.3c-15.8 0-28.6 6.1-39.3 18.8-7.1-12.1-19.4-18.8-34.9-18.8-16.3 0-26.4 7.6-33.4 15.8v-11c0-1.2-1-2.2-2.2-2.2H438c-1.3 0-2.3 1-2.3 2.2v116.7c0 1.2 1 2.2 2.3 2.2h26.7c1.3 0 2.2-1 2.2-2.2V75.7c0-16.3 9-26.9 22.7-26.9 13.8 0 21.4 9.3 21.4 25.9v66.7c0 1.2 1 2.2 2.3 2.2H540c1.2 0 2.3-1 2.3-2.2v-66c0-16.6 8.5-26.7 22.7-26.7 17.8 0 21.4 14.3 21.4 26.2v66.6c0 1.2 1 2.2 2.3 2.2h26.7c1.3 0 2.3-1 2.3-2.2V66.7c.1-29.2-16.2-46.8-43.2-46.8M98.8 72.2c.3.3.7.5 1 .5s.8-.2 1-.5l41.5-47.5c.3-.5.3-1 .2-1.5-.2-.5-.7-.8-1.3-.8h-35.7c-.3 0-.8.2-1 .5L80.9 49.8c-.5.5-.5 1.3 0 1.8l17.9 20.6zm-5.1 5.7L45.8 23.1c-.3-.3-.7-.5-1-.5H9.5c-.5-.2-1.2.2-1.3.7-.2.5-.2 1 .2 1.5l47 53.6-55 63.1c-.3.3-.5 1-.2 1.5.2.5.7.8 1.3.8h35.7c.3 0 .8-.2 1-.5l37.7-43.2c.2 0 .2-.2.2-.2l17.6-20.3c.4-.6.4-1.2 0-1.7m55.6 63.5l-48.5-55.6c-.3-.3-.7-.5-1-.5-.3 0-.8.2-1 .5L81 106.1c-.5.5-.5 1.3 0 1.8l30.9 35.4c.3.3.7.5 1 .5h35.4c.5 0 1-.3 1.3-.8.2-.6 0-1.2-.3-1.6" fill="#54b948"/>
</svg>
